<?xml version="1.0" standalone="no"?>
<!DOCTYPE svg PUBLIC "-//W3C//DTD SVG 20010904//EN"
 "http://www.w3.org/TR/2001/REC-SVG-20010904/DTD/svg10.dtd">
<svg version="1.0" xmlns="http://www.w3.org/2000/svg"
 width="253.000000pt" height="199.000000pt" viewBox="0 0 253.000000 199.000000"
 preserveAspectRatio="xMidYMid meet">

<g transform="translate(0.000000,199.000000) scale(0.100000,-0.100000)"
fill="#000000" stroke="none">
<path d="M1165 1793 c-68 -9 -124 -35 -158 -72 -55 -61 -62 -94 -62 -296 0
-192 7 -228 61 -335 54 -109 172 -200 259 -200 91 0 205 91 266 212 61 121 94
343 69 472 -23 124 -92 192 -219 216 -52 10 -155 11 -216 3z m25 -229 c58 -17
121 -15 234 7 l68 13 24 -27 c18 -22 24 -40 24 -79 0 -27 7 -77 15 -109 13
-49 14 -71 5 -122 -31 -171 -175 -337 -291 -337 -46 0 -127 40 -166 81 -49 52
-99 143 -118 214 -17 62 -17 68 -1 118 10 28 21 88 26 132 7 68 12 82 35 102
31 27 70 29 145 7z"/>
<path d="M890 742 c-86 -31 -158 -78 -194 -125 -37 -49 -49 -111 -45 -246 4
-111 6 -121 29 -146 14 -15 34 -32 45 -38 26 -15 1055 -20 1102 -5 59 17 68
45 66 205 -1 119 -5 147 -21 180 -24 46 -95 114 -149 141 -41 21 -159 62 -179
62 -6 0 -15 -17 -19 -37 -19 -105 -170 -439 -186 -411 -3 7 -12 65 -19 129
-11 103 -10 120 4 147 10 19 14 42 10 57 -6 23 -10 25 -70 25 -35 0 -64 -2
-64 -5 0 -3 10 -25 21 -48 21 -41 22 -46 9 -165 -6 -68 -15 -135 -19 -150 -7
-26 -9 -24 -41 38 -67 129 -92 187 -121 275 -41 123 -51 145 -69 144 -8 0 -49
-12 -90 -27z"/>
</g>
</svg>
